<?xml version="1.0" encoding="utf-8"?>
<!-- Generator: Adobe Illustrator 28.2.0, SVG Export Plug-In . SVG Version: 6.00 Build 0)  -->
<svg version="1.1" id="Layer_1" xmlns="http://www.w3.org/2000/svg" xmlns:xlink="http://www.w3.org/1999/xlink" x="0px" y="0px"
	 viewBox="0 0 200 200" style="enable-background:new 0 0 200 200;" xml:space="preserve">
<style type="text/css">
	.st0{clip-path:url(#SVGID_00000036953176684697868160000006931401582973481107_);}
	.st1{clip-path:url(#SVGID_00000127742521122900390270000010051472183239505079_);}
	.st2{fill:#FFFFFF;}
</style>
<g>
	<defs>
		<rect id="SVGID_1_" x="1.9" y="1.2" width="196.2" height="196.2"/>
	</defs>
	<clipPath id="SVGID_00000064331788159306575010000004732277789437396924_">
		<use xlink:href="#SVGID_1_"  style="overflow:visible;"/>
	</clipPath>
	<g style="clip-path:url(#SVGID_00000064331788159306575010000004732277789437396924_);">
		<g>
			<defs>
				<circle id="SVGID_00000144331558277157382920000003003800267934415245_" cx="100" cy="99.3" r="98.1"/>
			</defs>
			<clipPath id="SVGID_00000013194414550293944410000003108515616904828588_">
				<use xlink:href="#SVGID_00000144331558277157382920000003003800267934415245_"  style="overflow:visible;"/>
			</clipPath>
			<g style="clip-path:url(#SVGID_00000013194414550293944410000003108515616904828588_);">
				<path d="M1.9,1.2h196.2v196.2H1.9V1.2z"/>
			</g>
		</g>
	</g>
</g>
<g>
	<g transform="translate(12.410689, 136.300939)">
		<g>
			<path class="st2" d="M112-40.3c0-12.2-2.2-25.5-6.5-40h67.1c0.2,2.5,0.2,6.2,0.2,11.1c0,21.4-2.8,39.1-8.5,53
				c-15.4,6.7-27.8,13.4-37.1,20.2c-9.3,6.8-13.9,13.8-13.9,21c0,7.2,3.1,14,9.3,20.4H59.4C31.1,9.4,13.4-32.5,6.2-80.3h68.6
				c0.7,30.7,8.5,60.6,23.6,89.8C107.4-5.6,112-22.2,112-40.3z"/>
		</g>
	</g>
</g>
</svg>
